<?xml version="1.0" standalone="no"?>
<!DOCTYPE svg PUBLIC "-//W3C//DTD SVG 20010904//EN"
 "http://www.w3.org/TR/2001/REC-SVG-20010904/DTD/svg10.dtd">
<svg version="1.0" xmlns="http://www.w3.org/2000/svg"
 width="512.000000pt" height="512.000000pt" viewBox="0 0 512.000000 512.000000"
 preserveAspectRatio="xMidYMid meet">

<g transform="translate(0.000000,512.000000) scale(0.100000,-0.100000)"
fill="#000000" stroke="none">
<path d="M2315 5109 c-786 -75 -1501 -518 -1927 -1196 -445 -707 -511 -1614
-173 -2378 136 -307 310 -559 546 -792 410 -405 893 -641 1484 -725 119 -17
512 -16 635 1 584 80 1093 333 1497 742 404 409 640 892 725 1484 19 136 16
522 -5 665 -21 135 -58 303 -84 380 -28 85 -98 107 -140 44 -16 -25 -15 -31
15 -152 17 -70 38 -163 46 -207 21 -116 39 -326 28 -337 -4 -4 -123 -7 -263
-6 l-254 3 -5 275 c-6 310 -5 308 -84 377 -58 51 -101 63 -225 63 -91 0 -101
2 -101 18 0 36 -72 310 -117 445 -25 76 -44 139 -42 140 2 1 65 22 139 46 74
24 187 66 249 92 134 57 115 63 220 -75 87 -116 150 -215 214 -335 63 -121 72
-131 114 -131 40 0 73 30 73 66 0 34 -93 214 -178 344 -425 652 -1132 1076
-1917 1150 -127 12 -340 11 -470 -1z m162 -1176 c-8 -8 -380 18 -536 37 -163
20 -458 74 -470 85 -10 10 87 189 170 315 223 337 506 548 787 589 l47 6 3
-514 c1 -283 1 -516 -1 -518z m321 1002 c247 -72 486 -270 681 -565 83 -126
180 -305 170 -315 -12 -11 -307 -65 -470 -85 -127 -15 -435 -39 -526 -40 -10
0 -13 110 -13 519 l0 518 51 -8 c28 -4 76 -15 107 -24z m-1033 -177 c-161
-161 -282 -332 -393 -552 -30 -61 -56 -112 -57 -113 -7 -12 -455 153 -455 167
0 15 145 142 255 225 136 102 317 210 444 266 85 38 295 117 313 118 3 1 -45
-50 -107 -111z m1587 76 c215 -74 476 -215 668 -360 103 -78 240 -200 240
-214 0 -15 -448 -180 -455 -167 -1 1 -27 52 -57 113 -111 220 -232 391 -393
552 -62 61 -112 112 -110 112 2 0 50 -16 107 -36z m-2482 -747 c58 -24 166
-64 240 -88 74 -24 137 -45 139 -46 2 -1 -17 -64 -42 -140 -45 -135 -117 -409
-117 -445 0 -16 -10 -18 -101 -18 -124 0 -167 -12 -225 -63 -79 -69 -78 -67
-84 -377 l-5 -275 -254 -3 c-140 -1 -259 2 -264 7 -10 10 6 199 28 327 50 288
156 575 300 816 105 175 248 363 269 354 6 -2 58 -24 116 -49z m690 -206 c250
-51 444 -74 823 -97 l97 -6 0 -214 0 -214 -620 0 c-427 0 -620 3 -620 11 0 26
73 296 109 399 47 139 51 150 60 150 3 0 71 -13 151 -29z m2178 -23 c48 -129
142 -458 142 -497 0 -8 -190 -11 -620 -11 l-620 0 0 214 0 214 98 6 c373 23
635 54 842 101 144 32 136 33 158 -27z m523 -687 l29 -29 0 -582 0 -582 -29
-29 -29 -29 -450 0 c-439 0 -450 0 -476 -21 -19 -15 -26 -30 -26 -54 0 -24 7
-39 26 -54 26 -20 39 -21 300 -21 186 0 274 -3 274 -11 0 -44 -134 -499 -159
-537 -6 -11 -31 -9 -128 12 -237 50 -499 81 -845 102 l-108 6 0 214 0 214 195
0 c195 0 196 0 220 25 32 31 32 69 0 100 l-24 25 -1071 0 -1072 0 -29 29 -29
29 0 582 0 582 29 29 29 29 1672 0 1672 0 29 -29z m-3581 -951 c0 -288 3 -306
63 -369 18 -18 55 -44 82 -57 43 -20 65 -24 158 -24 96 0 107 -2 107 -18 0
-36 72 -310 117 -445 25 -76 44 -139 42 -140 -2 -1 -65 -22 -139 -46 -74 -24
-186 -66 -249 -92 -90 -38 -118 -46 -129 -37 -7 7 -51 62 -97 122 -284 380
-441 801 -480 1284 l-6 82 265 0 266 0 0 -260z m4285 193 c-37 -405 -131 -723
-300 -1023 -77 -136 -251 -384 -284 -404 -4 -3 -59 16 -122 43 -63 27 -175 68
-249 92 -74 24 -137 45 -139 46 -2 2 17 65 42 140 45 133 117 408 117 445 0
16 11 18 108 18 92 0 114 4 157 24 28 13 64 39 82 57 60 63 63 81 63 369 l0
260 266 0 266 0 -7 -67z m-2485 -857 l0 -214 -107 -6 c-353 -21 -566 -46 -817
-97 -120 -25 -151 -28 -157 -17 -26 40 -159 491 -159 537 0 8 190 11 620 11
l620 0 0 -214z m0 -885 l0 -518 -51 8 c-288 46 -563 250 -784 584 -73 110
-175 292 -175 312 0 18 265 69 511 98 118 14 319 29 457 34 l42 1 0 -519z
m360 509 c96 -6 249 -19 339 -30 163 -20 458 -74 470 -85 9 -9 -84 -183 -160
-299 -224 -344 -506 -559 -792 -604 l-57 -9 0 519 c0 408 3 518 13 518 6 0 91
-5 187 -10z m-1482 -240 c105 -218 243 -414 407 -577 62 -62 112 -113 110
-113 -2 0 -48 16 -103 35 -259 90 -479 210 -701 383 -91 71 -211 180 -211 192
0 13 390 160 450 169 3 1 24 -39 48 -89z m2557 55 c117 -35 345 -124 345 -135
0 -4 -28 -34 -62 -66 -187 -173 -432 -335 -656 -433 -81 -36 -284 -111 -299
-111 -3 0 35 39 85 86 159 149 315 365 422 582 30 62 60 110 65 108 6 -2 51
-16 100 -31z"/>
<path d="M1136 2867 c-14 -15 -26 -36 -26 -49 0 -36 200 -570 223 -595 24 -26
63 -30 93 -8 14 9 38 62 70 155 27 77 51 140 54 140 3 0 27 -63 55 -141 31
-89 57 -146 69 -155 25 -17 67 -18 90 -1 24 17 228 573 224 611 -6 58 -79 83
-121 41 -8 -8 -43 -91 -78 -185 -34 -93 -65 -170 -69 -170 -3 0 -28 62 -55
137 -26 75 -57 145 -67 155 -21 21 -65 23 -92 3 -10 -8 -42 -78 -71 -162 -51
-143 -54 -147 -65 -118 -6 17 -36 98 -67 180 -30 83 -60 156 -67 162 -6 7 -26
15 -43 19 -26 5 -37 1 -57 -19z"/>
<path d="M2146 2869 c-17 -13 -26 -30 -26 -48 0 -40 206 -594 227 -608 22 -17
64 -16 89 1 12 9 38 66 69 155 28 78 52 141 55 141 3 0 27 -63 55 -141 31 -89
57 -146 69 -155 25 -17 67 -18 89 -1 24 17 229 574 225 611 -4 41 -46 70 -87
61 -38 -8 -49 -28 -122 -227 -29 -82 -56 -148 -60 -148 -3 0 -28 61 -54 136
-50 142 -71 174 -115 174 -44 0 -65 -32 -115 -174 -26 -75 -50 -136 -54 -136
-4 0 -28 60 -55 133 -75 202 -85 223 -112 236 -35 16 -48 14 -78 -10z"/>
<path d="M3156 2869 c-17 -13 -26 -30 -26 -49 0 -41 205 -592 226 -607 23 -17
65 -16 90 1 12 9 38 66 69 155 27 78 52 141 55 141 3 0 27 -63 54 -140 32 -93
56 -146 70 -155 30 -22 69 -18 93 8 23 25 223 559 223 595 0 30 -43 72 -73 72
-44 0 -64 -32 -120 -185 -31 -82 -61 -163 -67 -180 -11 -29 -14 -25 -65 118
-29 84 -61 154 -71 162 -27 20 -71 18 -92 -3 -10 -10 -41 -80 -67 -155 -27
-75 -52 -137 -56 -137 -3 0 -19 35 -34 78 -76 214 -105 279 -131 290 -35 17
-47 15 -78 -9z"/>
</g>
</svg>
